<?xml version="1.0" encoding="utf-8"?>
<!-- Generator: Adobe Illustrator 16.0.0, SVG Export Plug-In . SVG Version: 6.00 Build 0)  -->
<!DOCTYPE svg PUBLIC "-//W3C//DTD SVG 1.1//EN" "http://www.w3.org/Graphics/SVG/1.1/DTD/svg11.dtd">
<svg version="1.1" id="Layer_1" xmlns="http://www.w3.org/2000/svg" xmlns:xlink="http://www.w3.org/1999/xlink" x="0px" y="0px"
	 width="300px" height="100" viewBox="119 200 591.89 185.28" enable-background="new 0 0 841.89 595.28" xml:space="preserve">
<g>
	<path fill="#F0483E" d="M167.334,332.13l-3.983-5.724h3.784l2.131,3.153l2.109-3.153h3.664l-3.968,5.652l4.471,6.434h-3.8
		l-2.523-3.808l-2.523,3.808h-3.712L167.334,332.13z"/>

	<path style="fill: #000" d="M191.269,331.332h-11.808v-2.499h11.808V331.332z M191.269,336.338h-11.808v-2.491h11.808V336.338z"/>
	<path style="fill: #000" d="M200.314,324.53H197v-2.73h3.313V324.53z M197,326.406h3.313v12.086H197V326.406z"/>
	<path style="fill: #000" d="M202.469,326.406h3.153v1.676h0.072c0.847-1.356,2.292-2.004,3.696-2.004c3.529,0,4.416,1.989,4.416,4.982v7.432h-3.313
		v-6.825c0-1.987-0.583-2.97-2.131-2.97c-1.805,0-2.57,1.006-2.57,3.456v6.339h-3.322V326.406z"/>
	<path style="fill: #000" d="M224.496,336.952h-0.048c-0.774,1.302-2.131,1.868-3.672,1.868c-3.649,0-5.421-3.13-5.421-6.475
		c0-3.249,1.805-6.268,5.349-6.268c1.43,0,2.834,0.606,3.601,1.797h-0.016h0.048V321.8h3.312v16.692h-3.153V336.952z
		 M221.59,328.577c-2.172,0-2.915,1.868-2.915,3.865c0,1.883,0.863,3.871,2.915,3.871c2.204,0,2.857-1.907,2.857-3.904
		C224.448,330.445,223.745,328.577,221.59,328.577z"/>
	<path style="fill: #000" d="M232.416,333.256c0.095,2.1,1.125,3.058,2.97,3.058c1.341,0,2.411-0.814,2.626-1.557h2.923
		c-0.935,2.85-2.923,4.063-5.669,4.063c-3.808,0-6.163-2.619-6.163-6.362c0-3.625,2.499-6.38,6.163-6.38
		c4.12,0,6.107,3.458,5.876,7.178H232.416z M237.82,331.148c-0.303-1.686-1.029-2.571-2.643-2.571c-2.107,0-2.706,1.645-2.762,2.571
		H237.82z"/>
	<path style="fill: #000" d="M242.635,326.406h3.162v1.541h0.039c0.799-1.277,2.107-1.869,3.609-1.869c3.784,0,5.492,3.059,5.492,6.499
		c0,3.225-1.772,6.243-5.31,6.243c-1.453,0-2.834-0.631-3.625-1.82h-0.047v5.748h-3.321V326.406z M251.608,332.481
		c0-1.916-0.759-3.904-2.89-3.904c-2.18,0-2.883,1.94-2.883,3.904s0.75,3.832,2.906,3.832
		C250.914,336.313,251.608,334.445,251.608,332.481z"/>
	<path style="fill: #000" d="M259.192,333.256c0.095,2.1,1.125,3.058,2.969,3.058c1.325,0,2.412-0.814,2.611-1.557h2.93
		c-0.926,2.85-2.93,4.063-5.661,4.063c-3.808,0-6.17-2.619-6.17-6.362c0-3.625,2.498-6.38,6.17-6.38
		c4.111,0,6.107,3.458,5.869,7.178H259.192z M264.588,331.148c-0.303-1.686-1.029-2.571-2.642-2.571c-2.1,0-2.715,1.645-2.754,2.571
		H264.588z"/>
	<path style="fill: #000" d="M269.403,326.406h3.162v1.676h0.071c0.838-1.356,2.283-2.004,3.697-2.004c3.52,0,4.414,1.989,4.414,4.982v7.432h-3.321
		v-6.825c0-1.987-0.583-2.97-2.124-2.97c-1.796,0-2.579,1.006-2.579,3.456v6.339h-3.321V326.406z"/>
	<path style="fill: #000" d="M291.429,336.952h-0.041c-0.774,1.302-2.123,1.868-3.672,1.868c-3.648,0-5.428-3.13-5.428-6.475
		c0-3.249,1.805-6.268,5.357-6.268c1.428,0,2.834,0.606,3.6,1.797h-0.024h0.049V321.8h3.321v16.692h-3.162V336.952z
		 M288.539,328.577c-2.18,0-2.93,1.868-2.93,3.865c0,1.883,0.87,3.871,2.93,3.871c2.195,0,2.85-1.907,2.85-3.904
		C291.389,330.445,290.679,328.577,288.539,328.577z"/>
	<path style="fill: #000" d="M299.356,333.256c0.104,2.1,1.125,3.058,2.971,3.058c1.325,0,2.41-0.814,2.618-1.557h2.922
		c-0.934,2.85-2.922,4.063-5.66,4.063c-3.809,0-6.171-2.619-6.171-6.362c0-3.625,2.506-6.38,6.171-6.38
		c4.119,0,6.107,3.458,5.876,7.178H299.356z M304.762,331.148c-0.304-1.686-1.031-2.571-2.643-2.571c-2.1,0-2.714,1.645-2.763,2.571
		H304.762z"/>
	<path style="fill: #000" d="M309.575,326.406h3.154v1.676h0.072c0.847-1.356,2.292-2.004,3.696-2.004c3.529,0,4.416,1.989,4.416,4.982v7.432h-3.313
		v-6.825c0-1.987-0.591-2.97-2.131-2.97c-1.796,0-2.571,1.006-2.571,3.456v6.339h-3.321V326.406z"/>
	<path style="fill: #000" d="M327.179,326.406h2.435v2.219h-2.435v5.987c0,1.126,0.279,1.406,1.406,1.406c0.35,0,0.678-0.024,1.029-0.097v2.595
		c-0.559,0.096-1.286,0.119-1.94,0.119c-2.043,0-3.816-0.47-3.816-2.881v-7.13h-2.013v-2.219h2.013v-3.625h3.321V326.406z"/>
	<path style="fill: #000" d="M330.828,321.8h3.321v16.692h-3.321V321.8z"/>
	<path style="fill: #000" d="M342.26,340.019c-0.727,1.932-1.867,2.729-4.159,2.729c-0.679,0-1.357-0.048-2.037-0.119v-2.73
		c0.631,0.047,1.286,0.144,1.94,0.12c1.149-0.12,1.524-1.318,1.149-2.276l-4.255-11.336h3.553l2.738,8.278h0.041l2.642-8.278h3.442
		L342.26,340.019z"/>
	<path style="fill: #000" d="M359.872,326.078c3.808,0,6.266,2.523,6.266,6.38c0,3.839-2.458,6.362-6.266,6.362c-3.785,0-6.251-2.523-6.251-6.362
		C353.621,328.602,356.087,326.078,359.872,326.078z M359.872,336.313c2.259,0,2.945-1.939,2.945-3.855
		c0-1.94-0.686-3.881-2.945-3.881c-2.244,0-2.922,1.94-2.922,3.881C356.95,334.374,357.628,336.313,359.872,336.313z"/>
	<path style="fill: #000" d="M367.345,326.406h3.169v2.244h0.04c0.607-1.518,2.243-2.572,3.863-2.572c0.232,0,0.512,0.049,0.719,0.111v3.091
		c-0.303-0.072-0.79-0.12-1.197-0.12c-2.427,0-3.265,1.756-3.265,3.88v5.452h-3.329V326.406z"/>
	<path style="fill: #000" d="M387.598,337.719c0,1.995-0.703,5.356-6.268,5.356c-2.378,0-5.165-1.125-5.325-3.88h3.29
		c0.311,1.237,1.308,1.652,2.482,1.652c1.844,0,2.69-1.253,2.667-2.985v-1.589h-0.048c-0.726,1.262-2.172,1.867-3.624,1.867
		c-3.625,0-5.174-2.753-5.174-6.082c0-3.13,1.805-5.98,5.198-5.98c1.588,0,2.802,0.536,3.6,1.94h0.048v-1.612h3.153V337.719z
		 M384.445,332.297c0-1.963-0.679-3.72-2.834-3.72c-1.869,0-2.683,1.645-2.683,3.441c0,1.725,0.647,3.624,2.683,3.624
		C383.502,335.643,384.445,334.022,384.445,332.297z"/>
	<path style="fill: #000" d="M389.187,330.118c0.184-3.105,2.969-4.04,5.676-4.04c2.418,0,5.316,0.536,5.316,3.434v6.29c0,1.103,0.112,2.204,0.416,2.69
		h-3.361c-0.12-0.375-0.216-0.773-0.24-1.164c-1.053,1.102-2.594,1.492-4.071,1.492c-2.283,0-4.112-1.143-4.112-3.625
		c0-2.737,2.06-3.392,4.112-3.672c2.043-0.303,3.936-0.231,3.936-1.589c0-1.43-0.982-1.636-2.147-1.636
		c-1.261,0-2.084,0.519-2.195,1.819H389.187z M396.859,332.577c-0.559,0.495-1.732,0.52-2.763,0.703
		c-1.029,0.207-1.964,0.566-1.964,1.771c0,1.245,0.958,1.55,2.037,1.55c2.594,0,2.69-2.061,2.69-2.787V332.577z"/>
	<path style="fill: #000" d="M402.28,326.406h3.161v1.676h0.064c0.847-1.356,2.3-2.004,3.697-2.004c3.536,0,4.414,1.989,4.414,4.982v7.432h-3.312
		v-6.825c0-1.987-0.591-2.97-2.132-2.97c-1.796,0-2.562,1.006-2.562,3.456v6.339h-3.329V326.406z"/>
	<path style="fill: #000" d="M418.622,324.53h-3.321v-2.73h3.321V324.53z M415.301,326.406h3.321v12.086h-3.321V326.406z"/>
	<path style="fill: #000" d="M420.027,335.994l6.291-7.089h-5.82v-2.499h10.195v2.499l-6.298,7.089h6.738v2.498h-11.105V335.994z"/>
	<path style="fill: #000" d="M435.18,333.256c0.096,2.1,1.118,3.058,2.97,3.058c1.333,0,2.41-0.814,2.618-1.557h2.93
		c-0.943,2.85-2.93,4.063-5.668,4.063c-3.809,0-6.171-2.619-6.171-6.362c0-3.625,2.499-6.38,6.171-6.38
		c4.119,0,6.107,3.458,5.867,7.178H435.18z M440.584,331.148c-0.311-1.686-1.038-2.571-2.65-2.571c-2.099,0-2.707,1.645-2.754,2.571
		H440.584z"/>
	<path style="fill: #000" d="M454.021,336.952h-0.039c-0.775,1.302-2.133,1.868-3.674,1.868c-3.647,0-5.428-3.13-5.428-6.475
		c0-3.249,1.796-6.268,5.357-6.268c1.421,0,2.826,0.606,3.601,1.797h-0.025h0.041V321.8h3.329v16.692h-3.162V336.952z
		 M451.13,328.577c-2.18,0-2.922,1.868-2.922,3.865c0,1.883,0.862,3.871,2.922,3.871c2.195,0,2.851-1.916,2.851-3.904
		C453.981,330.445,453.27,328.577,451.13,328.577z"/>
	<path style="fill: #000" d="M469.293,324.882h-5.005V321.8h13.675v3.082h-4.997v13.61h-3.672V324.882z"/>
	<path style="fill: #000" d="M479.416,321.8h12.487v3.082h-8.814v3.584h8.095v2.85h-8.095v4.096h9.005v3.081h-12.678V321.8z"/>
	<path style="fill: #000" d="M493.635,321.8h7.193c4.334,0,7.584,2.714,7.584,8.255c0,4.838-2.482,8.438-7.584,8.438h-7.193V321.8z M497.299,335.411
		h3.273c2.131,0,4.159-1.31,4.159-5.005c0-3.37-1.165-5.524-4.813-5.524h-2.619V335.411z"/>
	<path style="fill: #000" d="M518.902,333.256c0.096,2.1,1.117,3.058,2.97,3.058c1.341,0,2.411-0.814,2.619-1.557h2.922
		c-0.935,2.85-2.922,4.063-5.653,4.063c-3.808,0-6.179-2.619-6.179-6.362c0-3.625,2.506-6.38,6.179-6.38
		c4.112,0,6.099,3.458,5.868,7.178H518.902z M524.299,331.148c-0.294-1.686-1.021-2.571-2.635-2.571
		c-2.107,0-2.714,1.645-2.762,2.571H524.299z"/>
	<path style="fill: #000" d="M535.34,338.492h-3.689l-4.142-12.086h3.488l2.547,8.255h0.041l2.554-8.255h3.297L535.34,338.492z"/>
	<path style="fill: #000" d="M542.605,333.256c0.103,2.1,1.142,3.058,2.978,3.058c1.333,0,2.419-0.814,2.619-1.557h2.929
		c-0.941,2.85-2.929,4.063-5.66,4.063c-3.816,0-6.18-2.619-6.18-6.362c0-3.625,2.5-6.38,6.18-6.38c4.104,0,6.099,3.458,5.868,7.178
		H542.605z M548.01,331.148c-0.296-1.686-1.029-2.571-2.642-2.571c-2.109,0-2.707,1.645-2.763,2.571H548.01z"/>
	<path style="fill: #000" d="M552.84,326.406h3.153v1.676h0.072c0.83-1.356,2.283-2.004,3.689-2.004c3.536,0,4.422,1.989,4.422,4.982v7.432h-3.321
		v-6.825c0-1.987-0.591-2.97-2.124-2.97c-1.805,0-2.587,1.006-2.587,3.456v6.339h-3.305V326.406z"/>
	<path style="fill: #000" d="M570.436,326.406h2.427v2.219h-2.427v5.987c0,1.126,0.279,1.406,1.405,1.406c0.343,0,0.679-0.024,1.022-0.097v2.595
		c-0.551,0.096-1.286,0.119-1.933,0.119c-2.035,0-3.816-0.47-3.816-2.881v-7.13h-2.011v-2.219h2.011v-3.625h3.322V326.406z"/>
	<g>
		<g>
			<path fill="#ED1C24" d="M177.338,266.559h-15.584v-14.243h48.276v14.243h-15.576v41.349h-17.116V266.559z"/>
			<path fill="#ED1C24" d="M212.688,252.316h46.847v14.243h-29.722v6.93h29.722v13.245h-29.722v6.922h29.738v14.252h-46.863V252.316
				z"/>
			<path fill="#ED1C24" d="M262.417,252.316h28.103c18.537,0,25.083,13.7,25.083,27.711c0,17.053-9.029,27.881-28.421,27.881
				h-24.765V252.316z M279.542,293.656h6.706c10.667,0,12.231-8.647,12.231-13.867c0-3.498-1.102-13.23-13.477-13.23h-5.46V293.656z
				"/>
		</g>
		<g>
			<g>
				<path fill="#ED1C24" d="M340.208,286.478l-5.222-8.661l-5.094,8.661h-12.549l11.911-17.515l-11.471-16.758h12.558l4.646,8.287
					l4.774-8.287h12.559l-11.464,16.758l11.911,17.515H340.208z"/>
			</g>
		</g>
	</g>
	<g>
		<path style="fill: #000" d="M366.698,252.46h38.393v6.778h-30.896v16.806h27.167v6.602h-27.167v25.166h-7.496V252.46z"/>
		<path style="fill: #000" d="M441.462,271.478c3.561,3.473,5.349,8.566,5.349,15.289c0,6.506-1.572,11.872-4.719,16.119
			c-3.145,4.24-8.015,6.364-14.625,6.364c-5.517,0-9.893-1.885-13.134-5.629c-3.25-3.754-4.87-8.792-4.87-15.131
			c0-6.77,1.717-12.167,5.125-16.182c3.425-4.007,8.008-6.02,13.772-6.02C433.527,266.289,437.887,268.021,441.462,271.478z
			 M437.248,298.302c1.653-3.394,2.475-7.186,2.475-11.345c0-3.768-0.59-6.826-1.788-9.189c-1.884-3.711-5.141-5.563-9.756-5.563
			c-4.103,0-7.081,1.572-8.941,4.742c-1.876,3.162-2.795,6.969-2.795,11.44c0,4.286,0.919,7.863,2.795,10.729
			c1.86,2.858,4.814,4.29,8.862,4.29C432.545,303.406,435.595,301.703,437.248,298.302z"/>
		<path style="fill: #000" d="M455.33,267.454h6.442v6.97c0.52-1.357,1.821-3.001,3.873-4.95c2.067-1.948,4.438-2.922,7.128-2.922
			c0.128,0,0.336,0.007,0.639,0.032c0.304,0.031,0.814,0.08,1.549,0.151v7.162c-0.407-0.071-0.774-0.127-1.11-0.152
			c-0.352-0.024-0.718-0.032-1.109-0.032c-3.425,0-6.052,1.095-7.88,3.29c-1.836,2.204-2.754,4.733-2.754,7.6v23.21h-6.778V267.454z
			"/>
		<path style="fill: #000" d="M482.194,256.189h6.858v11.265h6.442v5.54h-6.442v26.337c0,1.406,0.479,2.355,1.429,2.83
			c0.526,0.278,1.413,0.414,2.642,0.414c0.328,0,0.671-0.007,1.055-0.023c0.375-0.016,0.814-0.057,1.316-0.129v5.39
			c-0.774,0.231-1.588,0.392-2.427,0.486c-0.838,0.104-1.756,0.16-2.738,0.16c-3.162,0-5.31-0.814-6.443-2.435
			c-1.133-1.612-1.692-3.72-1.692-6.31v-26.721h-5.469v-5.54h5.469V256.189z"/>
		<path style="fill: #000" d="M523.908,283.389c1.557-0.199,2.603-0.854,3.129-1.956c0.303-0.606,0.455-1.477,0.455-2.611c0-2.315-0.822-4-2.458-5.053
			c-1.653-1.046-4-1.565-7.057-1.565c-3.537,0-6.043,0.95-7.521,2.881c-0.831,1.055-1.374,2.635-1.621,4.727h-6.332
			c0.128-4.981,1.741-8.455,4.838-10.411c3.098-1.947,6.69-2.93,10.778-2.93c4.742,0,8.598,0.911,11.561,2.715
			c2.938,1.805,4.406,4.622,4.406,8.438v23.256c0,0.703,0.144,1.271,0.431,1.702c0.287,0.423,0.894,0.639,1.828,0.639
			c0.296,0,0.639-0.023,1.022-0.056c0.375-0.049,0.766-0.096,1.198-0.176v5.015c-1.055,0.294-1.853,0.495-2.412,0.565
			c-0.551,0.073-1.31,0.112-2.259,0.112c-2.332,0-4.032-0.83-5.085-2.491c-0.56-0.877-0.951-2.123-1.174-3.728
			c-1.381,1.812-3.361,3.376-5.947,4.71c-2.595,1.326-5.445,1.995-8.559,1.995c-3.736,0-6.802-1.133-9.173-3.4
			c-2.379-2.274-3.569-5.111-3.569-8.536c0-3.736,1.174-6.626,3.505-8.686c2.347-2.06,5.413-3.321,9.205-3.801L523.908,283.389z
			 M509.625,301.711c1.43,1.128,3.13,1.695,5.086,1.695c2.386,0,4.702-0.551,6.929-1.655c3.768-1.837,5.661-4.83,5.661-8.997v-5.453
			c-0.831,0.536-1.893,0.974-3.202,1.325c-1.301,0.359-2.579,0.6-3.831,0.75l-4.104,0.527c-2.451,0.328-4.294,0.838-5.54,1.549
			c-2.1,1.173-3.145,3.049-3.145,5.636C507.479,299.044,508.197,300.577,509.625,301.711z"/>
		<path style="fill: #000" d="M545.383,252.46h6.794v55.353h-6.794V252.46z"/>
		<path style="fill: #000" d="M587.273,268.563c2.667,1.35,4.71,3.083,6.099,5.23c1.357,2.02,2.251,4.399,2.699,7.113
			c0.407,1.86,0.606,4.83,0.606,8.894h-29.355c0.12,4.112,1.078,7.4,2.883,9.883c1.788,2.479,4.566,3.724,8.334,3.724
			c3.512,0,6.314-1.174,8.415-3.516c1.166-1.365,1.996-2.946,2.491-4.734h6.667c-0.184,1.477-0.767,3.13-1.757,4.95
			c-0.99,1.82-2.091,3.307-3.321,4.465c-2.043,2.012-4.566,3.369-7.584,4.072c-1.629,0.398-3.458,0.606-5.5,0.606
			c-4.99,0-9.229-1.828-12.702-5.485c-3.464-3.658-5.198-8.776-5.198-15.354c0-6.491,1.74-11.752,5.245-15.799
			c3.489-4.041,8.064-6.06,13.7-6.06C581.844,266.552,584.598,267.223,587.273,268.563z M589.7,284.411
			c-0.272-2.938-0.91-5.293-1.908-7.049c-1.837-3.267-4.91-4.894-9.229-4.894c-3.082,0-5.676,1.125-7.768,3.368
			c-2.099,2.251-3.201,5.11-3.329,8.575H589.7z"/>
		<path style="fill: #000" d="M602.25,302.464l23.966-28.942h-22.195v-6.067h31.312v5.54l-23.808,28.757h24.526v6.062H602.25V302.464z"/>
		<path style="fill: #000" d="M665.479,283.389c1.558-0.199,2.603-0.854,3.13-1.956c0.304-0.606,0.456-1.477,0.456-2.611c0-2.315-0.823-4-2.467-5.053
			c-1.646-1.046-3.992-1.565-7.05-1.565c-3.536,0-6.043,0.95-7.52,2.881c-0.83,1.055-1.365,2.635-1.621,4.727h-6.322
			c0.119-4.981,1.739-8.455,4.821-10.411c3.105-1.947,6.706-2.93,10.794-2.93c4.742,0,8.59,0.911,11.552,2.715
			c2.938,1.805,4.399,4.622,4.399,8.438v23.256c0,0.703,0.152,1.271,0.439,1.702c0.295,0.423,0.902,0.639,1.836,0.639
			c0.295,0,0.629-0.023,1.013-0.056c0.376-0.049,0.775-0.096,1.198-0.176v5.015c-1.054,0.294-1.852,0.495-2.411,0.565
			c-0.543,0.073-1.301,0.112-2.251,0.112c-2.339,0-4.04-0.83-5.102-2.491c-0.542-0.877-0.933-2.123-1.166-3.728
			c-1.381,1.812-3.36,3.376-5.938,4.71c-2.596,1.326-5.453,1.995-8.566,1.995c-3.745,0-6.802-1.133-9.166-3.4
			c-2.378-2.274-3.568-5.111-3.568-8.536c0-3.736,1.165-6.626,3.505-8.686c2.331-2.06,5.396-3.321,9.188-3.801L665.479,283.389z
			 M651.197,301.711c1.437,1.128,3.13,1.695,5.094,1.695c2.378,0,4.693-0.551,6.93-1.655c3.775-1.837,5.66-4.83,5.66-8.997v-5.453
			c-0.83,0.536-1.901,0.974-3.202,1.325c-1.309,0.359-2.586,0.6-3.84,0.75l-4.096,0.527c-2.458,0.328-4.303,0.838-5.548,1.549
			c-2.091,1.173-3.145,3.049-3.145,5.636C649.049,299.044,649.768,300.577,651.197,301.711z"/>
	</g>
</g>
</svg>
